<svg width="280" height="280" viewBox="0 0 280 280" fill="none" xmlns="http://www.w3.org/2000/svg">
<path fill-rule="evenodd" clip-rule="evenodd" d="M112.301 41.409H118.307V138.223C118.307 138.251 134.255 138.251 134.255 138.251V137.389H121.956V87.7899H143.451V132.331H150.607V82.6747L160.693 90.405V64.2546H163.395V92.4739L170.607 97.9914V116.21H176.757V125.349H168.107V125.981H178.827V47.8747H186.614V38.1617H188.482V47.8747H196.269V98.5374H199.459V65.7777H203.54V98.5374H206.471V60.5189L212.362 65.4903V144.86H212.42V161.356H226.156C226.156 196.241 226.098 231.156 226.156 266.043C203.195 275.584 191.872 252.364 167.274 250.266C165.263 250.095 165.751 250.18 164.027 250.841C158.136 253.14 150.894 250.095 142.331 241.76C152.619 249.088 159.487 251.301 162.877 248.398C164.659 246.876 164.142 246.157 164.429 244.146C164.631 242.651 165.061 240.813 165.723 238.629C166.067 238.629 166.469 238.399 166.929 237.881C167.877 236.818 167.677 236.789 167.418 235.439C167.331 234.978 167.245 234.461 167.102 233.858C167.447 233.915 167.907 233.599 168.51 232.996C169.832 231.588 169.085 231.789 168.969 230.007C168.883 228.801 169.056 227.45 169.515 225.984C171.986 226.214 173.826 225.611 175.062 224.117C176.643 222.22 175.521 221.789 174.315 219.691C173.308 217.938 171.986 215.495 170.32 212.364C167.274 206.674 168.826 208.283 162.13 206.472C155.463 204.69 143.221 201.385 125.348 196.558C134.687 197.363 191.096 207.075 190.407 205.582C181.011 197.333 176.326 193.224 176.326 193.224C176.269 183.913 175.579 177.161 174.315 172.936C169.487 154.315 154.286 145.781 128.767 147.39C143.94 148.366 154.889 152.82 161.614 160.781C160.176 160.58 159.257 160.436 158.884 160.264C139.917 140.091 91.4096 155.694 93.4786 187.764C93.651 195.179 93.7659 198.857 93.7659 198.857C90.6624 199.776 89.7428 202.133 91.0647 205.869C93.9672 206.443 96.6108 206.674 99.0248 206.587C97.473 212.507 98.3351 215.581 101.669 215.811C99.1397 216.501 97.9328 217.995 98.019 220.265C103.766 222.938 108.048 225.639 110.864 228.398C104.485 225.725 99.1972 224.145 95.0304 223.685C86.783 225.352 93.7947 237.565 75.7193 239.721C74.7711 239.778 73.794 239.835 72.817 239.921C61.4948 240.611 52.7589 243.543 46.6667 248.715V169.833L54.3681 161.299H73.248V160.034H62.5292V92.3016L86.9267 73.594V144.746H93.3637V45.7482H93.3061V33.7939H96.9557V25.805H101.295V11.6666H105.002V25.805H109.485V33.7939H112.416V41.2941L112.301 41.409Z" fill="url(#paint0_linear_4_415)"/>
<defs>
<linearGradient id="paint0_linear_4_415" x1="136.411" y1="11.6666" x2="136.411" y2="268.333" gradientUnits="userSpaceOnUse">
<stop stop-color="#254796" stop-opacity="0.1"/>
<stop offset="1" stop-color="#254796" stop-opacity="0.3"/>
</linearGradient>
</defs>
</svg>
