<svg width="24" height="24" viewBox="0 0 24 24" fill="none" xmlns="http://www.w3.org/2000/svg">
<path fill-rule="evenodd" clip-rule="evenodd" d="M9.62581 3.54935H10.1406V11.8477C10.1406 11.8501 11.5076 11.8501 11.5076 11.8501V11.7762H10.4534V7.52485H12.2958V11.3427H12.9092V7.08641L13.7737 7.749V5.50754H14.0053V7.92634L14.6235 8.39927V9.9609H15.1506V10.7442H14.4092V10.7984H15.328V4.10355H15.9955V3.27101H16.1556V4.10355H16.8231V8.44607H17.0965V5.63809H17.4463V8.44607H17.6975V5.18734L18.2025 5.61346V12.4166H18.2074V13.8305H19.3848C19.3848 16.8207 19.3798 19.8134 19.3848 22.8037C17.4167 23.6215 16.4462 21.6312 14.3378 21.4514C14.1654 21.4367 14.2072 21.444 14.0595 21.5007C13.5545 21.6977 12.9338 21.4367 12.1998 20.7223C13.0816 21.3504 13.6703 21.5401 13.9609 21.2913C14.1136 21.1608 14.0693 21.0992 14.0939 20.9268C14.1112 20.7987 14.1481 20.6411 14.2048 20.4539C14.2343 20.4539 14.2688 20.4342 14.3082 20.3898C14.3895 20.2987 14.3723 20.2962 14.3501 20.1805C14.3427 20.141 14.3353 20.0967 14.323 20.045C14.3526 20.0499 14.392 20.0228 14.4437 19.9711C14.557 19.8504 14.493 19.8676 14.4831 19.7149C14.4757 19.6115 14.4905 19.4957 14.5299 19.3701C14.7417 19.3898 14.8994 19.3381 15.0053 19.21C15.1408 19.0474 15.0447 19.0105 14.9413 18.8307C14.855 18.6804 14.7417 18.471 14.5989 18.2026C14.3378 17.7149 14.4708 17.8528 13.8969 17.6976C13.3254 17.5449 12.2761 17.2616 10.7441 16.8478C11.5446 16.9168 16.3797 17.7493 16.3206 17.6213C15.5152 16.9143 15.1137 16.5621 15.1137 16.5621C15.1088 15.764 15.0496 15.1852 14.9413 14.8231C14.5275 13.227 13.2245 12.4955 11.0372 12.6334C12.3377 12.7171 13.2762 13.0989 13.8526 13.7812C13.7294 13.764 13.6506 13.7517 13.6186 13.7369C11.9929 12.0078 7.83511 13.3452 8.01245 16.0941C8.02723 16.7296 8.03708 17.0449 8.03708 17.0449C7.77106 17.1237 7.69224 17.3257 7.80555 17.6459C8.05433 17.6951 8.28093 17.7149 8.48784 17.7075C8.35483 18.2149 8.42872 18.4784 8.71445 18.4981C8.49769 18.5572 8.39424 18.6853 8.40163 18.8799C8.89425 19.109 9.26126 19.3405 9.50265 19.577C8.95583 19.3479 8.50262 19.2124 8.14546 19.173C7.43854 19.3159 8.03955 20.3627 6.49023 20.5475C6.40895 20.5524 6.3252 20.5573 6.24146 20.5647C5.27098 20.6238 4.52219 20.8751 4 21.3184V14.5571L4.66012 13.8256H6.2784V13.7172H5.35965V7.91157L7.45086 6.30806V12.4068H8.0026V3.92128H7.99767V2.89662H8.31049V2.21186H8.68242V1H9.00017V2.21186H9.38442V2.89662H9.63566V3.5395L9.62581 3.54935Z" fill="#172446"/>
</svg>
